Coordinates
version=1
nRows=6
nColumns=107
inDegrees=yes

Units are S.I. units (second, meters, Newtons, ...)
If the header above contains a line with 'inDegrees', this indicates whether rotational values are in degrees (yes) or radians (no).

endheader
time	sternoclavicular_r2	sternoclavicular_r3	unrotscap_r3	unrotscap_r2	acromioclavicular_r2	acromioclavicular_r3	acromioclavicular_r1	unrothum_r1	unrothum_r3	unrothum_r2	elv_angle	shoulder_elv	shoulder1_r2	shoulder_rot	elbow_flexion	pro_sup	deviation	flexion	proximal_distal_r1	proximal_distal_r3	cmc_flexion	cmc_abduction	mp_flexion	ip_flexion	mcp2_flexion	mcp2_abduction	pm2_flexion	md2_flexion	mcp3_flexion	mcp3_abduction	pm3_flexion	md3_flexion	mcp4_flexion	mcp4_abduction	pm4_flexion	md4_flexion	mcp5_flexion	mcp5_abduction	pm5_flexion	md5_flexion	bicpt_tx	bicpt_ty	bicpt_tz	bicpt2_tx	bicpt2_ty	bicpt2_tz	ptpt_tx	ptpt_ty	ptpt_tz	FCUpt_tx	FCUpt_ty	FCUpt_tz	EDCpt_tx	EDCpt_ty	EDCpt_tz	APLpt_tx	APLpt_ty	APLpt_tz	FPLpt_tx	FPLpt_ty	FPLpt_tz	FPLpt2_tx	FPLpt2_ty	FPLpt2_tz	PEC1pt2_tx	PEC1pt2_ty	PEC1pt2_tz	PEC1pt3_tx	PEC1pt3_ty	PEC1pt3_tz	PEC2pt2_tx	PEC2pt2_ty	PEC2pt2_tz	PEC2pt3_tx	PEC2pt3_ty	PEC2pt3_tz	PEC3pt2_tx	PEC3pt2_ty	PEC3pt2_tz	PEC3pt3_tx	PEC3pt3_ty	PEC3pt3_tz	DELT2pt2a_tx	DELT2pt2a_ty	DELT2pt2a_tz	DELT2pt2_tx	DELT2pt2_ty	DELT2pt2_tz	LAT1pt2_tx	LAT1pt2_ty	LAT1pt2_tz	LAT1pt3_tx	LAT1pt3_ty	LAT1pt3_tz	LAT2pt2_tx	LAT2pt2_ty	LAT2pt2_tz	LAT2pt3_tx	LAT2pt3_ty	LAT2pt3_tz	LAT3pt2_tx	LAT3pt2_ty	LAT3pt2_tz	LAT3pt3_tx	LAT3pt3_ty	LAT3pt3_tz
      1.50000000	     -0.30561263	      0.12944309	     -0.12944309	      0.30561263	     -0.06188034	      0.50009515	      0.22478933	     -0.22478933	     -0.50009515	      0.06188034	    108.88507905	     72.35650655	     -1.90040314	    -67.84914518	     28.07134789	     89.32504942	      0.42920754	     -1.19724983	      0.43171043	     -0.59862492	    -14.22674724	     14.65463336	    -39.75104323	     -3.17770122	     41.81274951	    -13.19832529	     11.51894279	    -23.20467227	     26.83672154	    -14.45943933	     55.42009656	     23.68278932	     -5.02872848	    -13.93790066	     59.03308407	     29.06616909	    -36.04908509	     -1.96191462	     16.08333657	      4.99655366	      0.00082851	     -0.03081741	     -0.00481824	      0.01388356	     -0.01782572	     -0.00049888	      0.00094989	     -0.06916774	     -0.00724561	      0.01312168	     -0.18212357	      0.00017954	     -0.01071898	      0.00376219	     -0.00086698	      0.00002454	      0.00000982	      0.00004909	      0.00003142	      0.00009425	      0.00005302	     -0.00284310	      0.00046811	      0.00056174	      0.00237169	      0.00832101	      0.00578853	     -0.00775823	      0.01873231	     -0.01776756	      0.00237169	      0.00832101	      0.00578853	      0.00052258	      0.01736558	     -0.00912497	      0.00380103	      0.00462721	      0.01559743	      0.00000000	      0.00699712	      0.00000000	     -0.00679348	     -0.03139471	     -0.00576468	      0.02607636	     -0.00215288	     -0.03134902	     -0.00084416	      0.01414973	     -0.00578853	      0.00233149	      0.02042063	     -0.01688320	     -0.00566793	      0.01226042	     -0.00518555	     -0.01181824	      0.02588757	     -0.02898283	     -0.02218935	      0.01370755	     -0.00695427	     -0.01471250	      0.02990738	     -0.03621848
      1.53333333	     -0.30662171	      0.12987049	     -0.12987049	      0.30662171	     -0.06208466	      0.50174638	      0.22553155	     -0.22553155	     -0.50174638	      0.06208466	    108.79674754	     72.59541629	     -1.89886146	    -67.35107466	     27.74812231	     89.28046340	      0.42879267	     -1.19604393	      0.43143875	     -0.59802197	    -14.28785391	     15.88331338	    -40.48257313	     -3.16609459	     40.69265854	    -13.48641205	     11.04067530	    -23.86165127	     20.87407739	    -14.43319975	     49.38893056	     21.11121699	    -11.70529209	    -13.59677528	     54.15716812	     27.71357901	    -40.70213062	     -0.88715841	     15.14080414	      5.00568917	      0.00081782	     -0.03078036	     -0.00481227	      0.01388850	     -0.01773791	     -0.00050672	      0.00095318	     -0.06916561	     -0.00724202	      0.01311651	     -0.18212512	      0.00017820	     -0.01071363	      0.00375969	     -0.00086547	      0.00002573	      0.00001029	      0.00005146	      0.00003293	      0.00009880	      0.00005557	     -0.00287031	      0.00047061	      0.00056473	      0.00237952	      0.00834848	      0.00580764	     -0.00778385	      0.01879416	     -0.01782622	      0.00237952	      0.00834848	      0.00580764	      0.00052430	      0.01742291	     -0.00915510	      0.00381040	      0.00464248	      0.01562168	      0.00000000	      0.00704367	      0.00000000	     -0.00681591	     -0.03149837	     -0.00580337	      0.02610564	     -0.00213445	     -0.03100687	     -0.00084695	      0.01419645	     -0.00580764	      0.00233919	      0.02048806	     -0.01693894	     -0.00568665	      0.01230090	     -0.00520268	     -0.01185726	      0.02597305	     -0.02907852	     -0.02226261	      0.01375281	     -0.00697723	     -0.01476108	      0.03000613	     -0.03633807
      1.56666667	     -0.30765001	      0.13030602	     -0.13030602	      0.30765001	     -0.06229287	      0.50342905	      0.22628789	     -0.22628789	     -0.50342905	      0.06229287	    108.19111356	     72.83887356	     -1.88829115	    -65.50450670	     27.53926343	     89.19864804	      0.42884553	     -1.19723168	      0.43147374	     -0.59861584	    -14.30118340	     18.08760985	    -40.30332840	     -3.03154398	     41.14014524	    -13.64332808	     11.00970572	    -23.99595043	     16.29632575	    -14.36221257	     46.02369935	     20.01065870	    -15.75939320	    -13.31484612	     51.49145570	     26.93102919	    -43.37943511	     -1.62879281	     14.27109852	      4.83963759	      0.00081091	     -0.03075642	     -0.00480842	      0.01389757	     -0.01768118	     -0.00052111	      0.00095923	     -0.06916170	     -0.00723543	      0.01310703	     -0.18212796	      0.00017575	     -0.01070381	      0.00375512	     -0.00086270	      0.00002457	      0.00000983	      0.00004913	      0.00003144	      0.00009433	      0.00005306	     -0.00287622	      0.00047115	      0.00056538	      0.00238750	      0.00837648	      0.00582711	     -0.00780995	      0.01885719	     -0.01788601	      0.00238750	      0.00837648	      0.00582711	      0.00052606	      0.01748134	     -0.00918580	      0.00381992	      0.00465805	      0.01564626	      0.00000000	      0.00709127	      0.00000000	     -0.00683877	     -0.03160400	     -0.00584293	      0.02618683	     -0.00206588	     -0.02973578	     -0.00084979	      0.01424406	     -0.00582711	      0.00234703	      0.02055677	     -0.01699575	     -0.00570572	      0.01234215	     -0.00522012	     -0.01189703	      0.02606015	     -0.02917604	     -0.02233727	      0.01379893	     -0.00700063	     -0.01481058	      0.03010676	     -0.03645993
      1.60000000	     -0.30810808	      0.13050004	     -0.13050004	      0.30810808	     -0.06238562	      0.50417863	      0.22662482	     -0.22662482	     -0.50417863	      0.06238562	    108.12654586	     72.94732680	     -1.88716423	    -65.07177938	     27.38216057	     89.18702116	      0.42774460	     -1.19036522	      0.43075117	     -0.59518261	    -14.35091813	     19.57552341	    -41.13626236	     -2.39022153	     39.35756139	    -13.81168779	     11.22623820	    -26.55263119	     15.56178457	    -14.30257918	     33.93858126	     14.28429347	    -16.51709718	    -12.72958040	     37.85579779	     22.34979893	    -47.81204624	     -1.72592906	     16.08380433	      5.02855470	      0.00080572	     -0.03073841	     -0.00480552	      0.01389885	     -0.01763850	     -0.00052315	      0.00096009	     -0.06916115	     -0.00723449	      0.01310568	     -0.18212837	      0.00017540	     -0.01070242	      0.00375447	     -0.00086230	      0.00003127	      0.00001251	      0.00006253	      0.00004002	      0.00012007	      0.00006754	     -0.00289858	      0.00047319	      0.00056783	      0.00239105	      0.00838895	      0.00583579	     -0.00782158	      0.01888527	     -0.01791264	      0.00239105	      0.00838895	      0.00583579	      0.00052684	      0.01750737	     -0.00919948	      0.00382416	      0.00466499	      0.01565716	      0.00000000	      0.00711253	      0.00000000	     -0.00684895	     -0.03165106	     -0.00586060	      0.02619938	     -0.00204975	     -0.02943746	     -0.00085105	      0.01426527	     -0.00583579	      0.00235053	      0.02058737	     -0.01702106	     -0.00571421	      0.01236053	     -0.00522790	     -0.01191474	      0.02609895	     -0.02921948	     -0.02237053	      0.01381948	     -0.00701105	     -0.01483264	      0.03015159	     -0.03651422
      1.63333333	     -0.30885583	      0.13081675	     -0.13081675	      0.30885583	     -0.06253702	      0.50540223	      0.22717482	     -0.22717482	     -0.50540223	      0.06253702	    107.74333096	     73.12436393	     -1.88047587	    -63.84347615	     27.18255878	     89.12459575	      0.42654399	     -1.18464949	      0.42996128	     -0.59232475	    -14.35178466	     20.97602494	    -41.22539641	     -2.22650771	     38.72990844	    -13.87776511	     11.03225934	    -27.76210298	     13.88868593	    -14.14811575	     27.48505823	     13.01760845	    -18.18838603	    -12.10611421	     31.10333643	     21.45615978	    -50.32448544	     -2.45019035	     16.19954189	      5.05493325	      0.00079911	     -0.03071554	     -0.00480183	      0.01390575	     -0.01758428	     -0.00053411	      0.00096470	     -0.06915817	     -0.00722946	      0.01309845	     -0.18213054	      0.00017353	     -0.01069493	      0.00375099	     -0.00086019	      0.00003679	      0.00001472	      0.00007358	      0.00004709	      0.00014127	      0.00007946	     -0.00289897	      0.00047323	      0.00056787	      0.00239686	      0.00840931	      0.00584995	     -0.00784056	      0.01893110	     -0.01795611	      0.00239686	      0.00840931	      0.00584995	      0.00052812	      0.01754986	     -0.00922180	      0.00383106	      0.00467631	      0.01567489	      0.00000000	      0.00714731	      0.00000000	     -0.00686557	     -0.03172788	     -0.00588949	      0.02622081	     -0.00200387	     -0.02859013	     -0.00085312	      0.01429989	     -0.00584995	      0.00235623	      0.02063734	     -0.01706237	     -0.00572808	      0.01239053	     -0.00524058	     -0.01194366	      0.02616229	     -0.02929039	     -0.02242482	      0.01385302	     -0.00702807	     -0.01486863	      0.03022476	     -0.03660284
      1.66666667	     -0.30980291	      0.13121789	     -0.13121789	      0.30980291	     -0.06272879	      0.50695199	      0.22787143	     -0.22787143	     -0.50695199	      0.06272879	    107.34265428	     73.34859264	     -1.87348275	    -62.52118349	     26.87004292	     89.07504499	      0.42604133	     -1.18432031	      0.42963039	     -0.59216015	    -14.34804798	     22.20271539	    -41.04928223	     -2.13757856	     38.67759288	    -13.89973146	     10.79996174	    -27.85746218	     11.33221279	    -13.87189359	     25.69227706	     12.62806976	    -20.51237876	    -11.59349990	     29.61252392	     21.10635221	    -51.50806460	     -3.49383917	     15.69212674	      4.94879643	      0.00078878	     -0.03067972	     -0.00479606	      0.01391123	     -0.01749938	     -0.00054282	      0.00096836	     -0.06915580	     -0.00722547	      0.01309271	     -0.18213226	      0.00017205	     -0.01068898	      0.00374822	     -0.00085852	      0.00003711	      0.00001484	      0.00007421	      0.00004749	      0.00014248	      0.00008015	     -0.00289728	      0.00047307	      0.00056769	      0.00240421	      0.00843510	      0.00586789	     -0.00786461	      0.01898915	     -0.01801117	      0.00240421	      0.00843510	      0.00586789	      0.00052974	      0.01760368	     -0.00925008	      0.00383979	      0.00469065	      0.01569724	      0.00000000	      0.00719147	      0.00000000	     -0.00688662	     -0.03182517	     -0.00592619	      0.02622148	     -0.00195432	     -0.02767773	     -0.00085573	      0.01434374	     -0.00586789	      0.00236346	      0.02070062	     -0.01711469	     -0.00574564	      0.01242852	     -0.00525665	     -0.01198028	      0.02624252	     -0.02938021	     -0.02249359	      0.01389550	     -0.00704962	     -0.01491423	      0.03031744	     -0.03671508
